<svg width="220" height="190" viewBox="0 0 220 190" fill="none" xmlns="http://www.w3.org/2000/svg">
  <defs>
    <radialGradient id="petal" cx="0" cy="0" r="1" gradientUnits="userSpaceOnUse" gradientTransform="translate(104 86) rotate(77) scale(83 49)">
      <stop stop-color="#F8F1FF"/>
      <stop offset="0.52" stop-color="#CDB4F6"/>
      <stop offset="1" stop-color="#8E68C8"/>
    </radialGradient>
    <linearGradient id="stem" x1="75" y1="33" x2="147" y2="177" gradientUnits="userSpaceOnUse">
      <stop stop-color="#8DAA85"/>
      <stop offset="1" stop-color="#5D7E62"/>
    </linearGradient>
  </defs>
  <path d="M109 88C126 110 140 139 129 169" stroke="url(#stem)" stroke-width="5" stroke-linecap="round"/>
  <path d="M119 92C151 87 170 65 178 41" stroke="url(#stem)" stroke-width="4" stroke-linecap="round"/>
  <path d="M95 88C64 78 44 55 36 27" stroke="url(#stem)" stroke-width="4" stroke-linecap="round"/>
  <path d="M139 119C163 113 185 122 199 141" stroke="url(#stem)" stroke-width="4" stroke-linecap="round"/>
  <path d="M77 112C55 112 36 124 22 143" stroke="url(#stem)" stroke-width="4" stroke-linecap="round"/>
  <path d="M107 78C89 44 96 19 111 8C127 20 130 48 114 80L107 78Z" fill="url(#petal)" stroke="#6E4AA1" stroke-width="3" stroke-linejoin="round"/>
  <path d="M116 86C153 63 183 69 195 86C184 104 153 111 118 94L116 86Z" fill="url(#petal)" stroke="#6E4AA1" stroke-width="3" stroke-linejoin="round"/>
  <path d="M109 98C126 134 116 163 98 174C82 160 82 127 101 98H109Z" fill="url(#petal)" stroke="#6E4AA1" stroke-width="3" stroke-linejoin="round"/>
  <path d="M96 92C61 113 32 106 19 88C32 70 64 66 98 83L96 92Z" fill="url(#petal)" stroke="#6E4AA1" stroke-width="3" stroke-linejoin="round"/>
  <path d="M98 81C69 53 66 26 80 11C100 18 112 45 105 81H98Z" fill="url(#petal)" stroke="#6E4AA1" stroke-width="3" stroke-linejoin="round"/>
  <path d="M119 96C150 120 155 149 140 164C121 157 108 130 111 97L119 96Z" fill="url(#petal)" stroke="#6E4AA1" stroke-width="3" stroke-linejoin="round"/>
  <circle cx="108" cy="89" r="15" fill="#F4D982" stroke="#6E4AA1" stroke-width="3"/>
  <path d="M108 75V103M94 89H122M98 79L118 99M118 79L98 99" stroke="#6E4AA1" stroke-width="2" stroke-linecap="round"/>
  <path d="M174 39C162 42 155 51 154 64C168 63 178 54 174 39Z" fill="#BFA5EA" stroke="#6E4AA1" stroke-width="3"/>
  <path d="M36 27C48 31 55 40 56 53C42 51 32 42 36 27Z" fill="#D7C5FA" stroke="#6E4AA1" stroke-width="3"/>
  <path d="M198 141C185 139 175 145 168 157C181 164 195 157 198 141Z" fill="#C6B0F0" stroke="#6E4AA1" stroke-width="3"/>
  <path d="M22 143C35 140 45 146 52 158C38 165 25 158 22 143Z" fill="#E2D4FF" stroke="#6E4AA1" stroke-width="3"/>
  <path d="M181 18L186 28L197 32L186 36L181 47L176 36L165 32L176 28L181 18Z" fill="#F4D982" stroke="#A987DC" stroke-width="2"/>
  <path d="M34 153L38 160L46 163L38 166L34 174L30 166L22 163L30 160L34 153Z" fill="#F6D7EA" stroke="#A987DC" stroke-width="2"/>
</svg>
